<?xml version="1.0" encoding="UTF-8" ?>
<!DOCTYPE svg PUBLIC "-//W3C//DTD SVG 1.1//EN" "http://www.w3.org/Graphics/SVG/1.1/DTD/svg11.dtd">
<svg width="512pt" height="512pt" viewBox="0 0 512 512" version="1.1" xmlns="http://www.w3.org/2000/svg">
<g id="#3b3b3bff">
<path fill="#3b3b3b" opacity="1.00" d=" M 197.30 27.32 C 217.62 18.38 239.74 13.68 261.93 13.35 C 284.69 13.01 308.31 16.90 327.96 28.99 C 333.88 32.52 338.64 37.67 342.42 43.38 C 356.26 45.80 367.15 55.96 374.77 67.22 C 385.93 84.56 391.59 105.45 390.49 126.05 C 389.67 139.58 382.24 151.45 373.80 161.60 C 380.45 165.04 385.66 171.11 387.42 178.46 C 390.60 191.66 386.89 205.23 382.88 217.82 C 378.28 230.20 371.67 243.40 359.16 249.35 C 358.98 255.56 359.24 261.78 358.99 268.00 C 358.76 274.02 356.90 279.87 354.25 285.25 C 348.92 295.57 341.64 304.75 333.52 313.01 C 333.44 322.15 333.51 331.29 333.48 340.44 C 371.32 348.99 409.36 356.61 447.26 364.83 C 456.48 366.90 466.01 368.29 474.58 372.49 C 490.28 379.96 502.13 394.80 506.24 411.67 C 508.48 420.83 510.08 430.14 512.00 439.37 L 512.00 440.88 C 511.30 442.93 510.38 445.18 508.26 446.12 C 425.74 482.66 335.14 500.53 244.93 498.56 C 162.09 497.66 79.53 479.60 3.78 446.14 C 1.67 445.19 0.72 442.98 0.00 440.95 L 0.00 439.41 C 1.89 430.20 3.51 420.93 5.72 411.80 C 9.40 396.52 19.43 382.92 32.97 374.95 C 40.24 370.44 48.58 368.17 56.88 366.47 C 97.44 357.84 137.99 349.17 178.51 340.38 C 178.31 330.59 178.84 320.77 178.33 310.99 C 176.61 306.93 173.00 304.00 170.54 300.39 C 164.25 291.42 158.31 281.58 157.31 270.43 C 156.88 263.56 157.20 256.68 157.13 249.80 C 152.93 247.52 148.92 244.77 145.91 241.02 C 137.38 230.73 132.78 217.87 129.58 205.07 C 127.39 195.52 126.34 185.14 129.78 175.76 C 131.99 169.49 137.01 164.71 142.85 161.76 C 136.80 154.11 132.93 144.86 131.77 135.17 C 126.45 104.22 138.44 71.55 161.21 50.21 C 171.51 40.18 184.25 33.11 197.30 27.32 M 292.04 103.16 C 282.75 105.63 274.63 111.16 267.39 117.33 C 260.38 123.38 253.25 129.28 246.13 135.20 C 237.54 141.98 228.09 147.72 217.96 151.91 C 202.00 158.70 184.64 161.32 167.42 162.35 C 167.62 172.55 166.92 182.76 167.64 192.95 C 167.65 195.45 167.96 199.24 164.96 200.21 C 161.88 200.71 160.77 197.39 160.69 194.97 C 160.12 188.39 158.58 181.68 154.81 176.16 C 153.94 174.94 152.70 173.17 150.92 174.07 C 145.65 174.86 142.45 179.97 141.97 184.95 C 140.77 195.20 143.74 205.43 147.28 214.95 C 150.11 221.87 153.36 228.93 158.82 234.20 C 161.04 236.48 164.35 236.73 167.17 237.82 C 169.67 238.78 171.11 241.49 171.14 244.08 C 171.44 251.38 171.10 258.68 171.16 265.98 C 171.08 274.19 175.09 281.73 179.44 288.44 C 189.14 302.81 202.26 314.62 216.47 324.43 C 221.53 327.49 226.37 331.22 232.18 332.77 C 240.21 335.11 248.63 336.02 256.98 335.68 C 266.85 335.87 276.98 335.03 286.13 331.09 C 297.78 324.94 308.46 317.06 318.20 308.20 C 326.67 300.26 334.65 291.57 340.32 281.36 C 342.42 277.16 344.62 272.80 344.80 268.02 C 345.10 259.98 344.66 251.93 345.01 243.90 C 345.02 241.58 346.00 239.20 347.98 237.90 C 350.88 236.38 354.50 236.38 357.03 234.11 C 360.52 231.07 362.98 227.05 365.17 223.02 C 370.07 213.65 373.10 203.36 374.37 192.88 C 374.79 187.85 374.69 182.36 371.83 177.99 C 370.30 175.53 367.54 174.17 364.80 173.56 C 358.63 179.72 356.34 188.74 355.53 197.19 C 355.46 198.93 354.05 201.06 352.11 200.59 C 348.98 200.15 348.75 196.42 348.69 193.93 C 348.90 182.75 348.64 171.56 348.69 160.38 C 344.49 154.53 340.07 148.86 335.80 143.08 C 334.36 141.38 334.68 139.06 334.61 137.01 C 334.70 127.80 334.64 118.60 334.66 109.39 C 321.90 102.10 306.36 99.48 292.04 103.16 M 192.67 324.05 C 192.61 337.67 192.68 351.28 192.64 364.89 C 187.93 364.99 183.22 364.98 178.51 364.96 C 178.49 361.62 178.49 358.28 178.53 354.95 C 174.16 355.78 169.82 356.74 165.50 357.78 C 177.03 381.83 198.70 400.62 223.99 409.00 C 245.52 416.32 269.50 415.66 290.73 407.63 C 314.72 398.92 335.04 380.63 346.35 357.78 C 342.09 356.84 337.83 355.90 333.55 355.05 C 333.60 358.40 333.60 361.76 333.56 365.12 C 328.81 365.11 324.07 365.13 319.33 365.02 C 319.32 352.02 319.30 339.01 319.35 326.00 C 310.62 332.64 301.64 339.05 291.84 344.04 C 278.69 349.77 264.05 350.31 249.92 349.95 C 240.64 349.42 231.33 347.83 222.63 344.47 C 211.83 338.97 201.92 331.84 192.67 324.05 Z" />
<path fill="#3b3b3b" opacity="1.00" d=" M 174.86 177.23 C 197.45 174.17 220.75 173.79 243.06 179.07 C 247.36 179.96 251.43 182.09 255.90 182.06 C 259.62 182.05 263.45 182.51 267.05 181.34 C 286.08 175.35 306.31 175.00 326.06 176.06 C 332.56 176.61 339.18 176.86 345.49 178.56 C 349.27 180.52 348.19 185.54 348.09 189.02 C 348.07 191.75 345.32 193.03 343.54 194.59 C 342.49 201.68 342.33 209.41 338.88 215.79 C 329.17 221.14 317.93 223.00 307.02 224.11 C 296.38 225.49 285.39 224.99 275.11 221.82 C 273.34 221.44 272.32 219.89 271.65 218.35 C 267.82 209.71 264.64 200.79 261.73 191.80 C 259.31 191.71 256.51 190.76 254.35 192.17 C 251.36 199.38 249.27 206.97 246.05 214.10 C 244.74 216.70 244.24 220.45 241.08 221.45 C 232.97 223.83 224.45 224.73 216.01 224.47 C 203.25 223.58 190.25 221.89 178.61 216.29 C 177.56 215.80 176.75 214.88 176.39 213.79 C 174.27 207.51 173.54 200.90 172.67 194.37 C 167.61 191.57 166.69 184.96 168.82 180.00 C 169.91 177.74 172.71 177.63 174.86 177.23 M 182.25 186.22 C 182.36 194.06 182.87 201.94 185.04 209.52 C 201.67 214.48 219.56 218.04 236.74 213.73 C 240.30 205.99 242.16 197.62 245.72 189.88 C 225.11 183.99 203.40 184.21 182.25 186.22 M 271.13 190.12 C 274.04 198.04 276.69 206.07 280.10 213.79 C 297.24 217.76 315.09 214.76 331.61 209.56 C 333.63 201.92 334.60 194.07 334.47 186.16 C 313.38 184.49 291.57 183.64 271.13 190.12 Z" />
<path fill="#3b3b3b" opacity="1.00" d=" M 204.19 190.16 C 208.17 186.62 213.81 187.50 218.16 189.82 C 219.49 192.28 220.79 196.00 218.13 198.07 C 213.70 202.36 206.17 201.06 202.33 196.60 C 202.55 194.38 201.98 191.58 204.19 190.16 Z" />
<path fill="#3b3b3b" opacity="1.00" d=" M 297.55 190.59 C 301.56 186.72 308.39 186.99 312.40 190.69 C 314.11 192.13 313.39 194.61 313.70 196.57 C 309.40 202.09 300.66 201.96 296.30 196.58 C 296.64 194.60 295.90 192.10 297.55 190.59 Z" />
<path fill="#3b3b3b" opacity="1.00" d=" M 238.34 240.41 C 245.07 240.65 251.21 244.45 258.02 244.43 C 264.57 244.26 270.55 241.09 276.99 240.31 C 281.65 239.99 283.27 247.31 279.03 249.10 C 273.85 250.92 268.51 252.36 263.15 253.54 C 255.50 255.17 248.07 252.21 240.78 250.36 C 238.70 249.66 235.94 249.29 235.02 246.97 C 233.71 244.33 235.49 240.96 238.34 240.41 Z" />
<path fill="#3b3b3b" opacity="1.00" d=" M 237.27 278.31 C 239.42 277.59 241.74 277.86 243.98 277.81 C 254.99 278.07 266.02 277.68 277.03 277.99 C 280.01 277.89 282.34 281.18 281.33 283.98 C 280.72 286.34 278.22 287.44 275.96 287.28 C 264.66 287.39 253.35 287.25 242.05 287.34 C 240.02 287.18 237.59 287.56 236.02 285.98 C 233.55 283.96 234.32 279.48 237.27 278.31 Z" />
<path fill="#3b3b3b" opacity="1.00" d=" M 251.21 297.21 C 255.34 296.25 259.72 296.49 263.92 296.92 C 268.08 297.57 268.66 304.09 264.78 305.62 C 260.61 306.52 256.21 306.27 252.00 305.83 C 248.05 304.95 247.58 298.86 251.21 297.21 Z" />
</g>
<g id="#d2a587ff">
<path fill="#d2a587" opacity="1.00" d=" M 292.04 103.16 C 306.36 99.48 321.90 102.10 334.66 109.39 C 334.64 118.60 334.70 127.80 334.61 137.01 C 334.68 139.06 334.36 141.38 335.80 143.08 C 340.07 148.86 344.49 154.53 348.69 160.38 C 348.64 171.56 348.90 182.75 348.69 193.93 C 348.75 196.42 348.98 200.15 352.11 200.59 C 354.05 201.06 355.46 198.93 355.53 197.19 C 356.34 188.74 358.63 179.72 364.80 173.56 C 367.54 174.17 370.30 175.53 371.83 177.99 C 374.69 182.36 374.79 187.85 374.37 192.88 C 373.10 203.36 370.07 213.65 365.17 223.02 C 362.98 227.05 360.52 231.07 357.03 234.11 C 354.50 236.38 350.88 236.38 347.98 237.90 C 346.00 239.20 345.02 241.58 345.01 243.90 C 344.66 251.93 345.10 259.98 344.80 268.02 C 344.62 272.80 342.42 277.16 340.32 281.36 C 334.65 291.57 326.67 300.26 318.20 308.20 C 308.46 317.06 297.78 324.94 286.13 331.09 C 276.98 335.03 266.85 335.87 256.98 335.68 C 248.63 336.02 240.21 335.11 232.18 332.77 C 226.37 331.22 221.53 327.49 216.47 324.43 C 202.26 314.62 189.14 302.81 179.44 288.44 C 175.09 281.73 171.08 274.19 171.16 265.98 C 171.10 258.68 171.44 251.38 171.14 244.08 C 171.11 241.49 169.67 238.78 167.17 237.82 C 164.35 236.73 161.04 236.48 158.82 234.20 C 153.36 228.93 150.11 221.87 147.28 214.95 C 143.74 205.43 140.77 195.20 141.97 184.95 C 142.45 179.97 145.65 174.86 150.92 174.07 C 152.70 173.17 153.94 174.94 154.81 176.16 C 158.58 181.68 160.12 188.39 160.69 194.97 C 160.77 197.39 161.88 200.71 164.96 200.21 C 167.96 199.24 167.65 195.45 167.64 192.95 C 166.92 182.76 167.62 172.55 167.42 162.35 C 184.64 161.32 202.00 158.70 217.96 151.91 C 228.09 147.72 237.54 141.98 246.13 135.20 C 253.25 129.28 260.38 123.38 267.39 117.33 C 274.63 111.16 282.75 105.63 292.04 103.16 M 174.86 177.23 C 172.71 177.63 169.91 177.74 168.82 180.00 C 166.69 184.96 167.61 191.57 172.67 194.37 C 173.54 200.90 174.27 207.51 176.39 213.79 C 176.75 214.88 177.56 215.80 178.61 216.29 C 190.25 221.89 203.25 223.58 216.01 224.47 C 224.45 224.73 232.97 223.83 241.08 221.45 C 244.24 220.45 244.74 216.70 246.05 214.10 C 249.27 206.97 251.36 199.38 254.35 192.17 C 256.51 190.76 259.31 191.71 261.73 191.80 C 264.64 200.79 267.82 209.71 271.65 218.35 C 272.32 219.89 273.34 221.44 275.11 221.82 C 285.39 224.99 296.38 225.49 307.02 224.11 C 317.93 223.00 329.17 221.14 338.88 215.79 C 342.33 209.41 342.49 201.68 343.54 194.59 C 345.32 193.03 348.07 191.75 348.09 189.02 C 348.19 185.54 349.27 180.52 345.49 178.56 C 339.18 176.86 332.56 176.61 326.06 176.06 C 306.31 175.00 286.08 175.35 267.05 181.34 C 263.45 182.51 259.62 182.05 255.90 182.06 C 251.43 182.09 247.36 179.96 243.06 179.07 C 220.75 173.79 197.45 174.17 174.86 177.23 M 238.34 240.41 C 235.49 240.96 233.71 244.33 235.02 246.97 C 235.94 249.29 238.70 249.66 240.78 250.36 C 248.07 252.21 255.50 255.17 263.15 253.54 C 268.51 252.36 273.85 250.92 279.03 249.10 C 283.27 247.31 281.65 239.99 276.99 240.31 C 270.55 241.09 264.57 244.26 258.02 244.43 C 251.21 244.45 245.07 240.65 238.34 240.41 M 237.27 278.31 C 234.32 279.48 233.55 283.96 236.02 285.98 C 237.59 287.56 240.02 287.18 242.05 287.34 C 253.35 287.25 264.66 287.39 275.96 287.28 C 278.22 287.44 280.72 286.34 281.33 283.98 C 282.34 281.18 280.01 277.89 277.03 277.99 C 266.02 277.68 254.99 278.07 243.98 277.81 C 241.74 277.86 239.42 277.59 237.27 278.31 M 251.21 297.21 C 247.58 298.86 248.05 304.95 252.00 305.83 C 256.21 306.27 260.61 306.52 264.78 305.62 C 268.66 304.09 268.08 297.57 263.92 296.92 C 259.72 296.49 255.34 296.25 251.21 297.21 Z" />
<path fill="#d2a587" opacity="1.00" d=" M 182.25 186.22 C 203.40 184.21 225.11 183.99 245.72 189.88 C 242.16 197.62 240.30 205.99 236.74 213.73 C 219.56 218.04 201.67 214.48 185.04 209.52 C 182.87 201.94 182.36 194.06 182.25 186.22 M 204.19 190.16 C 201.98 191.58 202.55 194.38 202.33 196.60 C 206.17 201.06 213.70 202.36 218.13 198.07 C 220.79 196.00 219.49 192.28 218.16 189.82 C 213.81 187.50 208.17 186.62 204.19 190.16 Z" />
<path fill="#d2a587" opacity="1.00" d=" M 271.13 190.12 C 291.57 183.64 313.38 184.49 334.47 186.16 C 334.60 194.07 333.63 201.92 331.61 209.56 C 315.09 214.76 297.24 217.76 280.10 213.79 C 276.69 206.07 274.04 198.04 271.13 190.12 M 297.55 190.59 C 295.90 192.10 296.64 194.60 296.30 196.58 C 300.66 201.96 309.40 202.09 313.70 196.57 C 313.39 194.61 314.11 192.13 312.40 190.69 C 308.39 186.99 301.56 186.72 297.55 190.59 Z" />
<path fill="#d2a587" opacity="1.00" d=" M 192.67 324.05 C 201.92 331.84 211.83 338.97 222.63 344.47 C 231.33 347.83 240.64 349.42 249.92 349.95 C 264.05 350.31 278.69 349.77 291.84 344.04 C 301.64 339.05 310.62 332.64 319.35 326.00 C 319.30 339.01 319.32 352.02 319.33 365.02 C 324.07 365.13 328.81 365.11 333.56 365.12 C 333.60 361.76 333.60 358.40 333.55 355.05 C 337.83 355.90 342.09 356.84 346.35 357.78 C 335.04 380.63 314.72 398.92 290.73 407.63 C 269.50 415.66 245.52 416.32 223.99 409.00 C 198.70 400.62 177.03 381.83 165.50 357.78 C 169.82 356.74 174.16 355.78 178.53 354.95 C 178.49 358.28 178.49 361.62 178.51 364.96 C 183.22 364.98 187.93 364.99 192.64 364.89 C 192.68 351.28 192.61 337.67 192.67 324.05 Z" />
</g>
</svg>
