<?xml version="1.0" encoding="UTF-8" ?>
<!DOCTYPE svg PUBLIC "-//W3C//DTD SVG 1.1//EN" "http://www.w3.org/Graphics/SVG/1.1/DTD/svg11.dtd">
<svg width="512pt" height="512pt" viewBox="0 0 512 512" version="1.1" xmlns="http://www.w3.org/2000/svg">
<g id="#3d342eff">
<path fill="#3d342e" opacity="1.00" d=" M 254.32 0.00 L 257.65 0.00 C 271.76 0.37 285.91 1.89 299.56 5.63 C 325.46 12.66 349.42 26.69 368.08 46.00 C 397.36 76.13 414.04 117.32 416.93 159.00 C 418.27 180.14 415.77 201.30 412.61 222.17 C 408.41 246.86 401.78 271.14 392.73 294.49 C 391.43 297.62 390.61 301.45 387.48 303.31 C 385.08 304.87 381.92 304.73 379.45 303.42 C 372.17 299.61 365.14 295.16 359.26 289.37 C 355.29 296.43 352.43 304.09 347.80 310.78 C 342.14 320.55 334.92 329.28 327.90 338.07 C 327.28 343.40 327.81 348.80 327.68 354.16 C 365.33 361.44 403.01 368.62 440.52 376.65 C 449.23 378.54 458.16 379.93 466.37 383.58 C 479.67 389.32 490.74 399.93 497.20 412.88 C 501.55 421.45 503.20 431.02 505.64 440.23 C 506.46 443.83 507.76 447.36 508.00 451.07 C 508.12 454.15 506.05 456.90 503.33 458.16 C 491.28 464.39 478.66 469.36 466.09 474.41 C 447.00 481.23 427.82 487.92 408.10 492.74 C 359.39 505.42 309.06 511.49 258.76 512.00 L 252.32 512.00 C 192.35 511.36 132.36 502.58 75.11 484.56 C 55.16 477.88 35.23 470.96 16.24 461.83 C 12.75 460.04 8.85 458.81 5.89 456.15 C 2.78 452.84 4.34 448.06 5.34 444.23 C 8.68 432.35 10.33 419.69 16.90 408.99 C 25.57 394.13 40.66 383.37 57.43 379.67 C 99.59 370.49 141.97 362.32 184.33 354.17 C 184.26 349.10 184.51 344.04 184.30 338.98 C 184.41 337.28 183.11 336.07 182.14 334.87 C 173.64 325.04 166.37 314.25 159.79 303.06 C 146.28 298.49 133.25 291.99 122.49 282.53 C 104.65 267.37 93.46 245.63 88.24 223.06 C 83.23 202.04 83.00 180.26 84.22 158.80 C 85.41 141.06 87.88 123.28 93.26 106.29 C 99.42 86.52 110.02 67.45 126.55 54.54 C 133.16 49.14 140.98 45.62 148.34 41.40 C 152.12 39.37 156.03 37.56 160.03 36.02 C 163.51 34.66 167.50 34.07 170.23 31.29 C 193.01 10.73 223.71 -0.31 254.32 0.00 M 175.29 152.25 C 170.36 156.69 165.95 162.19 164.72 168.88 C 162.58 179.88 164.28 191.17 163.34 202.25 C 162.50 207.20 154.69 207.46 153.41 202.66 C 152.42 197.79 153.53 192.75 152.74 187.85 C 151.71 182.15 149.98 176.32 145.83 172.07 C 141.37 172.52 136.55 172.98 132.99 176.01 C 127.26 180.88 125.27 188.75 125.14 195.99 C 125.28 207.29 128.60 218.60 134.92 228.00 C 139.62 234.74 147.08 239.25 155.12 240.75 C 158.89 241.19 162.56 243.93 162.93 247.90 C 163.56 256.23 162.28 264.73 164.28 272.95 C 168.29 287.53 176.12 300.69 184.82 312.94 C 195.78 327.53 208.46 341.19 224.02 350.94 C 235.66 358.18 249.90 357.51 263.08 357.78 C 270.37 357.60 277.66 356.19 284.43 353.45 C 293.13 349.33 300.24 342.69 307.40 336.40 C 322.37 321.56 335.22 304.32 343.74 284.97 C 344.75 281.69 346.64 278.54 346.89 275.11 C 335.02 259.60 326.63 241.84 316.30 225.32 C 314.47 225.79 314.00 228.41 312.31 229.33 C 306.87 233.75 297.72 230.79 295.93 224.00 C 293.68 217.45 299.22 210.41 305.97 210.29 C 295.52 195.90 284.11 182.07 270.87 170.14 C 262.28 162.93 253.31 156.16 243.66 150.44 C 227.54 142.32 210.89 135.28 193.86 129.32 C 189.99 138.58 182.72 145.75 175.29 152.25 M 200.21 353.11 C 200.28 362.78 200.27 372.45 200.13 382.12 C 194.89 382.13 189.65 382.03 184.42 382.20 C 184.36 378.26 184.36 374.32 184.39 370.38 C 171.98 372.66 159.61 375.12 147.22 377.52 C 147.22 413.65 147.19 449.80 147.31 485.93 C 177.21 491.45 207.51 494.73 237.88 495.81 C 280.38 496.90 323.04 493.85 364.85 486.06 C 364.86 449.91 364.72 413.76 364.90 377.61 C 352.51 375.12 340.11 372.69 327.67 370.46 C 327.68 374.38 327.66 378.31 327.60 382.25 C 322.32 382.07 317.04 382.26 311.76 382.23 C 311.63 372.78 311.69 363.33 311.78 353.88 C 305.22 359.11 298.51 364.31 290.93 367.97 C 279.90 372.44 267.86 374.29 256.00 373.54 C 246.54 373.72 236.98 372.95 227.94 370.04 C 217.40 366.89 208.60 359.95 200.21 353.11 M 62.03 395.01 C 49.93 397.44 38.83 404.64 32.02 414.98 C 25.47 424.44 24.14 436.15 21.19 446.99 C 48.21 459.74 76.81 468.81 105.62 476.52 C 114.18 478.25 122.57 480.88 131.23 481.97 C 131.74 474.95 130.29 467.95 131.29 460.95 C 131.28 434.29 131.33 407.63 131.29 380.97 C 108.08 385.05 85.08 390.17 62.03 395.01 M 380.79 380.94 C 380.63 389.30 380.92 397.65 381.28 405.99 C 380.29 423.63 381.10 441.31 380.79 458.96 C 380.82 466.91 380.65 474.87 381.33 482.80 C 390.17 480.46 399.15 478.67 407.99 476.31 C 436.28 468.57 464.22 459.24 490.80 446.75 C 489.16 440.19 487.67 433.59 485.76 427.11 C 482.43 416.21 474.92 406.71 465.13 400.90 C 458.20 396.45 450.00 394.90 442.07 393.30 C 421.68 389.00 401.29 384.65 380.79 380.94 Z" />
<path fill="#3d342e" opacity="1.00" d=" M 204.40 210.58 C 212.14 209.13 218.83 218.00 215.43 225.09 C 212.66 232.49 201.35 233.60 197.16 226.94 C 192.64 220.93 196.91 211.28 204.40 210.58 Z" />
<path fill="#3d342e" opacity="1.00" d=" M 234.20 272.37 C 240.26 272.05 245.93 275.23 251.85 276.28 C 260.83 278.50 269.27 273.53 277.97 272.23 C 281.42 271.88 284.39 275.68 283.17 278.96 C 282.51 281.69 279.58 282.62 277.19 283.23 C 268.64 285.39 259.93 288.81 250.98 286.87 C 245.19 285.51 239.38 284.10 233.72 282.28 C 229.18 280.76 229.56 273.49 234.20 272.37 Z" />
<path fill="#3d342e" opacity="1.00" d=" M 234.19 304.26 C 248.76 303.68 263.42 304.11 278.03 304.04 C 282.25 303.67 285.10 309.25 282.38 312.48 C 280.71 314.89 277.53 314.58 274.98 314.62 C 261.68 314.46 248.36 314.83 235.07 314.44 C 229.63 314.11 228.93 305.54 234.19 304.26 Z" />
<path fill="#3d342e" opacity="1.00" d=" M 248.55 321.65 C 253.64 320.64 258.94 321.24 264.12 321.21 C 268.31 320.89 271.41 326.26 268.63 329.59 C 266.71 332.40 262.98 331.72 260.07 331.82 C 256.20 331.62 252.22 332.26 248.45 331.27 C 244.35 329.63 244.39 323.18 248.55 321.65 Z" />
</g>
<g id="#e3bab4ff">
<path fill="#e3bab4" opacity="1.00" d=" M 175.29 152.25 C 182.72 145.75 189.99 138.58 193.86 129.32 C 210.89 135.28 227.54 142.32 243.66 150.44 C 253.31 156.16 262.28 162.93 270.87 170.14 C 284.11 182.07 295.52 195.90 305.97 210.29 C 299.22 210.41 293.68 217.45 295.93 224.00 C 297.72 230.79 306.87 233.75 312.31 229.33 C 314.00 228.41 314.47 225.79 316.30 225.32 C 326.63 241.84 335.02 259.60 346.89 275.11 C 346.64 278.54 344.75 281.69 343.74 284.97 C 335.22 304.32 322.37 321.56 307.40 336.40 C 300.24 342.69 293.13 349.33 284.43 353.45 C 277.66 356.19 270.37 357.60 263.08 357.78 C 249.90 357.51 235.66 358.18 224.02 350.94 C 208.46 341.19 195.78 327.53 184.82 312.94 C 176.12 300.69 168.29 287.53 164.28 272.95 C 162.28 264.73 163.56 256.23 162.93 247.90 C 162.56 243.93 158.89 241.19 155.12 240.75 C 147.08 239.25 139.62 234.74 134.92 228.00 C 128.60 218.60 125.28 207.29 125.14 195.99 C 125.27 188.75 127.26 180.88 132.99 176.01 C 136.55 172.98 141.37 172.52 145.83 172.07 C 149.98 176.32 151.71 182.15 152.74 187.85 C 153.53 192.75 152.42 197.79 153.41 202.66 C 154.69 207.46 162.50 207.20 163.34 202.25 C 164.28 191.17 162.58 179.88 164.72 168.88 C 165.95 162.19 170.36 156.69 175.29 152.25 M 204.40 210.58 C 196.91 211.28 192.64 220.93 197.16 226.94 C 201.35 233.60 212.66 232.49 215.43 225.09 C 218.83 218.00 212.14 209.13 204.40 210.58 M 234.20 272.37 C 229.56 273.49 229.18 280.76 233.72 282.28 C 239.38 284.10 245.19 285.51 250.98 286.87 C 259.93 288.81 268.64 285.39 277.19 283.23 C 279.58 282.62 282.51 281.69 283.17 278.96 C 284.39 275.68 281.42 271.88 277.97 272.23 C 269.27 273.53 260.83 278.50 251.85 276.28 C 245.93 275.23 240.26 272.05 234.20 272.37 M 234.19 304.26 C 228.93 305.54 229.63 314.11 235.07 314.44 C 248.36 314.83 261.68 314.46 274.98 314.62 C 277.53 314.58 280.71 314.89 282.38 312.48 C 285.10 309.25 282.25 303.67 278.03 304.04 C 263.42 304.11 248.76 303.68 234.19 304.26 M 248.55 321.65 C 244.39 323.18 244.35 329.63 248.45 331.27 C 252.22 332.26 256.20 331.62 260.07 331.82 C 262.98 331.72 266.71 332.40 268.63 329.59 C 271.41 326.26 268.31 320.89 264.12 321.21 C 258.94 321.24 253.64 320.64 248.55 321.65 Z" />
<path fill="#e3bab4" opacity="1.00" d=" M 200.21 353.11 C 208.60 359.95 217.40 366.89 227.94 370.04 C 236.98 372.95 246.54 373.72 256.00 373.54 C 267.86 374.29 279.90 372.44 290.93 367.97 C 298.51 364.31 305.22 359.11 311.78 353.88 C 311.69 363.33 311.63 372.78 311.76 382.23 C 317.04 382.26 322.32 382.07 327.60 382.25 C 327.66 378.31 327.68 374.38 327.67 370.46 C 340.11 372.69 352.51 375.12 364.90 377.61 C 364.72 413.76 364.86 449.91 364.85 486.06 C 323.04 493.85 280.38 496.90 237.88 495.81 C 207.51 494.73 177.21 491.45 147.31 485.93 C 147.19 449.80 147.22 413.65 147.22 377.52 C 159.61 375.12 171.98 372.66 184.39 370.38 C 184.36 374.32 184.36 378.26 184.42 382.20 C 189.65 382.03 194.89 382.13 200.13 382.12 C 200.27 372.45 200.28 362.78 200.21 353.11 Z" />
<path fill="#e3bab4" opacity="1.00" d=" M 62.03 395.01 C 85.08 390.17 108.08 385.05 131.29 380.97 C 131.33 407.63 131.28 434.29 131.29 460.95 C 130.29 467.95 131.74 474.95 131.23 481.97 C 122.57 480.88 114.18 478.25 105.62 476.52 C 76.81 468.81 48.21 459.74 21.19 446.99 C 24.14 436.15 25.47 424.44 32.02 414.98 C 38.83 404.64 49.93 397.44 62.03 395.01 Z" />
<path fill="#e3bab4" opacity="1.00" d=" M 380.79 380.94 C 401.29 384.65 421.68 389.00 442.07 393.30 C 450.00 394.90 458.20 396.45 465.13 400.90 C 474.92 406.71 482.43 416.21 485.76 427.11 C 487.67 433.59 489.16 440.19 490.80 446.75 C 464.22 459.24 436.28 468.57 407.99 476.31 C 399.15 478.67 390.17 480.46 381.33 482.80 C 380.65 474.87 380.82 466.91 380.79 458.96 C 381.10 441.31 380.29 423.63 381.28 405.99 C 380.92 397.65 380.63 389.30 380.79 380.94 Z" />
</g>
</svg>
